<svg xmlns="http://www.w3.org/2000/svg" width="1272" height="224" class="svgbob">
    <style>
        .svgbob line,
        .svgbob path,
        .svgbob circle,
        .svgbob rect,
        .svgbob polygon {
            stroke: #c9d1d9;
            stroke-width: 2;
            stroke-opacity: 1;
            fill-opacity: 1;
            stroke-linecap: round;
            stroke-linejoin: miter;
        }

        .svgbob text {
            white-space: pre;
            fill: #c9d1d9;
            font-family: Iosevka Fixed, monospace;
            font-size: 14px;
        }

        .svgbob rect.backdrop {
            stroke: none;
            fill: #282c34;
        }

        .svgbob .broken {
            stroke-dasharray: 8;
        }

        .svgbob .filled {
            fill: #c9d1d9;
        }

        .svgbob .bg_filled {
            fill: #282c34;
            stroke-width: 1;
        }

        .svgbob .nofill {
            fill: #282c34;
        }

        .svgbob .end_marked_arrow {
            marker-end: url(#arrow);
        }

        .svgbob .start_marked_arrow {
            marker-start: url(#arrow);
        }

        .svgbob .end_marked_diamond {
            marker-end: url(#diamond);
        }

        .svgbob .start_marked_diamond {
            marker-start: url(#diamond);
        }

        .svgbob .end_marked_circle {
            marker-end: url(#circle);
        }

        .svgbob .start_marked_circle {
            marker-start: url(#circle);
        }

        .svgbob .end_marked_open_circle {
            marker-end: url(#open_circle);
        }

        .svgbob .start_marked_open_circle {
            marker-start: url(#open_circle);
        }

        .svgbob .end_marked_big_open_circle {
            marker-end: url(#big_open_circle);
        }

        .svgbob .start_marked_big_open_circle {
            marker-start: url(#big_open_circle);
        }
    </style>
    <defs>
        <marker id="arrow" viewBox="-2 -2 8 8" refX="4" refY="2" markerWidth="7" markerHeight="7"
            orient="auto-start-reverse">
            <polygon points="0,0 0,4 4,2 0,0"></polygon>
        </marker>
        <marker id="diamond" viewBox="-2 -2 8 8" refX="4" refY="2" markerWidth="7" markerHeight="7"
            orient="auto-start-reverse">
            <polygon points="0,2 2,0 4,2 2,4 0,2"></polygon>
        </marker>
        <marker id="circle" viewBox="0 0 8 8" refX="4" refY="4" markerWidth="7" markerHeight="7"
            orient="auto-start-reverse">
            <circle cx="4" cy="4" r="2" class="filled"></circle>
        </marker>
        <marker id="open_circle" viewBox="0 0 8 8" refX="4" refY="4" markerWidth="7" markerHeight="7"
            orient="auto-start-reverse">
            <circle cx="4" cy="4" r="2" class="bg_filled"></circle>
        </marker>
        <marker id="big_open_circle" viewBox="0 0 8 8" refX="4" refY="4" markerWidth="7" markerHeight="7"
            orient="auto-start-reverse">
            <circle cx="4" cy="4" r="3" class="bg_filled"></circle>
        </marker>
    </defs>
    <rect class="backdrop" x="0" y="0" width="1272" height="224"></rect><text x="170" y="76">::</text><text x="162"
        y="92">:</text><text x="186" y="92">:</text><text x="154" y="108">:</text><text x="194" y="108">:</text><text
        x="154" y="156">:</text><text x="194" y="156">:</text><text x="162" y="172">:</text><text x="186"
        y="172">:</text><text x="170" y="188">::</text><text x="298" y="76">|</text><text x="274" y="92">:</text><text
        x="266" y="108">:</text><text x="258" y="124">:</text><text x="306" y="124">:</text><text x="306"
        y="156">:</text><text x="298" y="172">:</text><text x="290" y="188">:</text><text x="578" y="76">:</text><text
        x="570" y="92">:</text><text x="562" y="108">:</text><text x="562" y="156">:</text><text x="570"
        y="172">:</text><text x="578" y="188">:</text><text x="658" y="76">::</text><text x="674" y="92">:</text><text
        x="642" y="108">:</text><text x="682" y="108">:</text><text x="634" y="124">:</text><text x="658"
        y="124">:</text><text x="666" y="140">:</text><text x="682" y="156">:</text><text x="666" y="188">:</text><text
        x="994" y="76">::</text><text x="1010" y="92">:</text><text x="978" y="108">:</text><text x="1018"
        y="108">:</text><text x="994" y="124">:</text><text x="1026" y="124">:</text><text x="1002"
        y="140">:</text><text x="978" y="156">:</text><text x="1010" y="156">:</text><text x="986" y="172">:</text><text
        x="994" y="188">:</text><text x="1106" y="76">::</text><text x="1122" y="92">:</text><text x="1090"
        y="108">:</text><text x="1130" y="108">:</text><text x="1082" y="124">:</text><text x="1122" y="156">::</text>
    <line x1="1076" y1="192" x2="1100" y2="192" class="solid"></line><text x="66" y="92">:</text><text x="82"
        y="124">:</text><text x="66" y="140">:</text><text x="90" y="140">:</text><text x="58" y="156">:</text><text
        x="50" y="172">:</text><text x="466" y="92">::</text><text x="482" y="108">:</text><text x="450"
        y="124">:</text><text x="490" y="124">:</text><text x="442" y="140">:</text><text x="466" y="140">:</text><text
        x="498" y="140">:</text><text x="474" y="156">:</text><text x="482" y="172">:</text><text x="778"
        y="92">:</text><text x="794" y="124">:</text><text x="778" y="140">:</text><text x="802" y="140">:</text><text
        x="770" y="156">:</text><text x="762" y="172">:</text><text x="890" y="92">:</text><text x="906"
        y="124">:</text><text x="890" y="140">:</text><text x="914" y="140">:</text><text x="882" y="156">:</text><text
        x="874" y="172">:</text><text x="1234" y="92">|</text><text x="1242" y="140">::</text><text x="1218"
        y="156">:</text><text x="1210" y="172">:</text>
    <g>
        <line x1="152" y1="48" x2="176" y2="48" class="solid"></line>
        <line x1="152" y1="48" x2="112" y2="128" class="solid"></line>
        <line x1="176" y1="48" x2="172" y2="56" class="solid"></line>
        <line x1="172" y1="56" x2="172" y2="64" class="solid"></line>
        <line x1="176" y1="48" x2="216" y2="128" class="solid"></line>
        <line x1="180" y1="56" x2="180" y2="64" class="solid"></line>
        <line x1="188" y1="72" x2="188" y2="80" class="solid"></line>
        <line x1="196" y1="88" x2="196" y2="96" class="solid"></line>
        <line x1="204" y1="104" x2="204" y2="144" class="broken"></line>
        <line x1="112" y1="128" x2="136" y2="128" class="solid"></line>
        <line x1="144" y1="112" x2="136" y2="128" class="solid"></line>
        <line x1="112" y1="128" x2="152" y2="208" class="solid"></line>
        <line x1="136" y1="128" x2="176" y2="208" class="solid"></line>
        <line x1="216" y1="128" x2="176" y2="208" class="solid"></line>
        <line x1="152" y1="208" x2="176" y2="208" class="solid"></line>
    </g>
    <g>
        <line x1="168" y1="64" x2="164" y2="72" class="solid"></line>
        <line x1="164" y1="72" x2="164" y2="80" class="solid"></line>
    </g>
    <g>
        <line x1="160" y1="80" x2="156" y2="88" class="solid"></line>
        <line x1="156" y1="88" x2="156" y2="96" class="solid"></line>
    </g>
    <g>
        <line x1="176" y1="80" x2="152" y2="128" class="solid"></line>
        <line x1="176" y1="80" x2="200" y2="128" class="solid"></line>
        <line x1="152" y1="128" x2="176" y2="176" class="solid"></line>
        <line x1="156" y1="136" x2="156" y2="144" class="solid"></line>
        <line x1="164" y1="152" x2="164" y2="160" class="solid"></line>
        <line x1="172" y1="168" x2="172" y2="176" class="solid"></line>
        <line x1="168" y1="112" x2="176" y2="128" class="solid"></line>
        <line x1="176" y1="128" x2="200" y2="128" class="solid"></line>
        <line x1="176" y1="128" x2="168" y2="144" class="solid"></line>
        <line x1="200" y1="128" x2="196" y2="136" class="solid"></line>
        <line x1="196" y1="136" x2="196" y2="144" class="solid"></line>
    </g>
    <g>
        <line x1="152" y1="96" x2="148" y2="104" class="solid"></line>
        <line x1="148" y1="104" x2="148" y2="144" class="broken"></line>
    </g>
    <g>
        <line x1="192" y1="144" x2="188" y2="152" class="solid"></line>
        <line x1="188" y1="152" x2="188" y2="160" class="solid"></line>
    </g>
    <g>
        <line x1="184" y1="160" x2="180" y2="168" class="solid"></line>
        <line x1="180" y1="168" x2="180" y2="176" class="solid"></line>
    </g>
    <g>
        <line x1="264" y1="48" x2="288" y2="48" class="solid"></line>
        <line x1="264" y1="48" x2="224" y2="128" class="solid"></line>
        <line x1="288" y1="48" x2="284" y2="56" class="solid"></line>
        <line x1="284" y1="56" x2="284" y2="88" class="broken"></line>
        <line x1="288" y1="48" x2="296" y2="64" class="solid"></line>
        <line x1="292" y1="56" x2="292" y2="128" class="broken"></line>
        <line x1="284" y1="88" x2="256" y2="144" class="solid"></line>
        <line x1="224" y1="128" x2="248" y2="128" class="solid"></line>
        <line x1="256" y1="112" x2="248" y2="128" class="solid"></line>
        <line x1="224" y1="128" x2="232" y2="144" class="solid"></line>
        <line x1="232" y1="144" x2="256" y2="144" class="solid"></line>
        <line x1="248" y1="128" x2="256" y2="144" class="solid"></line>
        <line x1="284" y1="96" x2="284" y2="128" class="solid"></line>
        <line x1="264" y1="128" x2="284" y2="128" class="solid"></line>
    </g>
    <g>
        <line x1="280" y1="64" x2="276" y2="72" class="solid"></line>
        <line x1="276" y1="72" x2="276" y2="80" class="solid"></line>
    </g>
    <g>
        <line x1="272" y1="80" x2="268" y2="88" class="solid"></line>
        <line x1="268" y1="88" x2="268" y2="96" class="solid"></line>
    </g>
    <g>
        <line x1="300" y1="80" x2="300" y2="128" class="broken"></line>
        <line x1="300" y1="112" x2="320" y2="112" class="solid"></line>
        <line x1="316" y1="112" x2="316" y2="144" class="broken"></line>
        <line x1="320" y1="112" x2="328" y2="128" class="solid"></line>
        <line x1="328" y1="128" x2="288" y2="208" class="solid"></line>
        <line x1="288" y1="128" x2="256" y2="192" class="solid"></line>
        <line x1="284" y1="136" x2="308" y2="136" class="broken"></line>
        <line x1="312" y1="128" x2="308" y2="136" class="solid"></line>
        <line x1="308" y1="136" x2="308" y2="144" class="solid"></line>
        <line x1="256" y1="192" x2="280" y2="192" class="solid"></line>
        <line x1="288" y1="176" x2="280" y2="192" class="solid"></line>
        <line x1="256" y1="192" x2="264" y2="208" class="solid"></line>
        <line x1="264" y1="208" x2="288" y2="208" class="solid"></line>
        <line x1="280" y1="192" x2="288" y2="208" class="solid"></line>
    </g>
    <g>
        <line x1="264" y1="96" x2="260" y2="104" class="solid"></line>
        <line x1="260" y1="104" x2="260" y2="112" class="solid"></line>
    </g>
    <g>
        <line x1="304" y1="144" x2="300" y2="152" class="solid"></line>
        <line x1="300" y1="152" x2="300" y2="160" class="solid"></line>
    </g>
    <g>
        <line x1="296" y1="160" x2="292" y2="168" class="solid"></line>
        <line x1="292" y1="168" x2="292" y2="176" class="solid"></line>
    </g>
    <g>
        <line x1="560" y1="48" x2="584" y2="48" class="solid"></line>
        <line x1="560" y1="48" x2="520" y2="128" class="solid"></line>
        <line x1="584" y1="48" x2="580" y2="56" class="solid"></line>
        <line x1="580" y1="56" x2="580" y2="64" class="solid"></line>
        <line x1="584" y1="48" x2="592" y2="64" class="solid"></line>
        <line x1="592" y1="64" x2="560" y2="128" class="solid"></line>
        <line x1="520" y1="128" x2="544" y2="128" class="solid"></line>
        <line x1="552" y1="112" x2="544" y2="128" class="solid"></line>
        <line x1="520" y1="128" x2="560" y2="208" class="solid"></line>
        <line x1="544" y1="128" x2="584" y2="208" class="solid"></line>
        <line x1="560" y1="128" x2="592" y2="192" class="solid"></line>
        <line x1="564" y1="136" x2="564" y2="144" class="solid"></line>
        <line x1="572" y1="152" x2="572" y2="160" class="solid"></line>
        <line x1="580" y1="168" x2="580" y2="176" class="solid"></line>
        <line x1="560" y1="208" x2="584" y2="208" class="solid"></line>
        <line x1="592" y1="192" x2="584" y2="208" class="solid"></line>
    </g>
    <g>
        <line x1="576" y1="64" x2="572" y2="72" class="solid"></line>
        <line x1="572" y1="72" x2="572" y2="80" class="solid"></line>
    </g>
    <g>
        <line x1="568" y1="80" x2="564" y2="88" class="solid"></line>
        <line x1="564" y1="88" x2="564" y2="96" class="solid"></line>
    </g>
    <g>
        <line x1="560" y1="96" x2="556" y2="104" class="solid"></line>
        <line x1="556" y1="104" x2="556" y2="144" class="broken"></line>
    </g>
    <g>
        <line x1="640" y1="48" x2="664" y2="48" class="solid"></line>
        <line x1="640" y1="48" x2="600" y2="128" class="solid"></line>
        <line x1="664" y1="48" x2="660" y2="56" class="solid"></line>
        <line x1="660" y1="56" x2="660" y2="64" class="solid"></line>
        <line x1="664" y1="48" x2="704" y2="128" class="solid"></line>
        <line x1="668" y1="56" x2="668" y2="64" class="solid"></line>
        <line x1="676" y1="72" x2="676" y2="80" class="solid"></line>
        <line x1="684" y1="88" x2="684" y2="96" class="solid"></line>
        <line x1="692" y1="104" x2="692" y2="144" class="broken"></line>
        <line x1="600" y1="128" x2="624" y2="128" class="solid"></line>
        <line x1="632" y1="112" x2="624" y2="128" class="solid"></line>
        <line x1="600" y1="128" x2="608" y2="144" class="solid"></line>
        <line x1="704" y1="128" x2="664" y2="208" class="solid"></line>
        <line x1="648" y1="112" x2="632" y2="144" class="solid"></line>
        <line x1="648" y1="112" x2="672" y2="160" class="solid"></line>
        <line x1="608" y1="144" x2="632" y2="144" class="solid"></line>
        <line x1="624" y1="128" x2="632" y2="144" class="solid"></line>
        <line x1="640" y1="144" x2="648" y2="160" class="solid"></line>
        <line x1="648" y1="160" x2="672" y2="160" class="solid"></line>
        <line x1="648" y1="160" x2="632" y2="192" class="solid"></line>
        <line x1="672" y1="160" x2="668" y2="168" class="solid"></line>
        <line x1="668" y1="168" x2="668" y2="176" class="solid"></line>
        <line x1="632" y1="192" x2="656" y2="192" class="solid"></line>
        <line x1="664" y1="176" x2="656" y2="192" class="solid"></line>
        <line x1="632" y1="192" x2="640" y2="208" class="solid"></line>
        <line x1="640" y1="208" x2="664" y2="208" class="solid"></line>
        <line x1="656" y1="192" x2="664" y2="208" class="solid"></line>
    </g>
    <g>
        <line x1="656" y1="64" x2="652" y2="72" class="solid"></line>
        <line x1="652" y1="72" x2="652" y2="112" class="broken"></line>
    </g>
    <g>
        <line x1="648" y1="80" x2="644" y2="88" class="solid"></line>
        <line x1="644" y1="88" x2="644" y2="96" class="solid"></line>
    </g>
    <g>
        <line x1="664" y1="80" x2="656" y2="96" class="solid"></line>
        <line x1="664" y1="80" x2="688" y2="128" class="solid"></line>
        <line x1="656" y1="96" x2="680" y2="144" class="solid"></line>
        <line x1="660" y1="104" x2="660" y2="112" class="solid"></line>
        <line x1="668" y1="120" x2="668" y2="128" class="solid"></line>
        <line x1="672" y1="128" x2="688" y2="128" class="solid"></line>
        <line x1="676" y1="136" x2="676" y2="176" class="broken"></line>
        <line x1="688" y1="128" x2="684" y2="136" class="solid"></line>
        <line x1="684" y1="136" x2="684" y2="144" class="solid"></line>
    </g>
    <g>
        <line x1="640" y1="96" x2="636" y2="104" class="solid"></line>
        <line x1="636" y1="104" x2="636" y2="112" class="solid"></line>
    </g>
    <g>
        <line x1="976" y1="48" x2="1000" y2="48" class="solid"></line>
        <line x1="976" y1="48" x2="936" y2="128" class="solid"></line>
        <line x1="1000" y1="48" x2="996" y2="56" class="solid"></line>
        <line x1="996" y1="56" x2="996" y2="64" class="solid"></line>
        <line x1="1000" y1="48" x2="1040" y2="128" class="solid"></line>
        <line x1="1004" y1="56" x2="1004" y2="64" class="solid"></line>
        <line x1="1012" y1="72" x2="1012" y2="80" class="solid"></line>
        <line x1="1020" y1="88" x2="1020" y2="96" class="solid"></line>
        <line x1="1028" y1="104" x2="1028" y2="112" class="solid"></line>
        <line x1="936" y1="128" x2="960" y2="128" class="solid"></line>
        <line x1="968" y1="112" x2="960" y2="128" class="solid"></line>
        <line x1="936" y1="128" x2="976" y2="208" class="solid"></line>
        <line x1="960" y1="128" x2="1000" y2="208" class="solid"></line>
        <line x1="976" y1="208" x2="1000" y2="208" class="solid"></line>
        <line x1="1000" y1="80" x2="992" y2="96" class="solid"></line>
        <line x1="1000" y1="80" x2="1032" y2="144" class="solid"></line>
        <line x1="992" y1="96" x2="1024" y2="160" class="solid"></line>
        <line x1="996" y1="104" x2="996" y2="112" class="solid"></line>
        <line x1="1004" y1="120" x2="1004" y2="128" class="solid"></line>
        <line x1="1012" y1="136" x2="1012" y2="144" class="solid"></line>
        <line x1="1016" y1="144" x2="1032" y2="144" class="solid"></line>
        <line x1="1040" y1="128" x2="1032" y2="144" class="solid"></line>
        <line x1="984" y1="112" x2="976" y2="128" class="solid"></line>
        <line x1="984" y1="112" x2="1016" y2="176" class="solid"></line>
        <line x1="976" y1="128" x2="1008" y2="192" class="solid"></line>
        <line x1="980" y1="136" x2="980" y2="144" class="solid"></line>
        <line x1="988" y1="152" x2="988" y2="160" class="solid"></line>
        <line x1="996" y1="168" x2="996" y2="176" class="solid"></line>
        <line x1="1000" y1="176" x2="1016" y2="176" class="solid"></line>
        <line x1="1024" y1="160" x2="1016" y2="176" class="solid"></line>
        <line x1="1008" y1="192" x2="1000" y2="208" class="solid"></line>
    </g>
    <g>
        <line x1="992" y1="64" x2="988" y2="72" class="solid"></line>
        <line x1="988" y1="72" x2="988" y2="112" class="broken"></line>
    </g>
    <g>
        <line x1="984" y1="80" x2="980" y2="88" class="solid"></line>
        <line x1="980" y1="88" x2="980" y2="96" class="solid"></line>
    </g>
    <g>
        <line x1="976" y1="96" x2="972" y2="104" class="solid"></line>
        <line x1="972" y1="104" x2="972" y2="144" class="broken"></line>
    </g>
    <g>
        <line x1="1088" y1="48" x2="1112" y2="48" class="solid"></line>
        <line x1="1088" y1="48" x2="1048" y2="128" class="solid"></line>
        <line x1="1112" y1="48" x2="1108" y2="56" class="solid"></line>
        <line x1="1108" y1="56" x2="1108" y2="64" class="solid"></line>
        <line x1="1112" y1="48" x2="1152" y2="128" class="solid"></line>
        <line x1="1116" y1="56" x2="1116" y2="64" class="solid"></line>
        <line x1="1124" y1="72" x2="1124" y2="80" class="solid"></line>
        <line x1="1132" y1="88" x2="1132" y2="96" class="solid"></line>
        <line x1="1140" y1="104" x2="1140" y2="144" class="broken"></line>
        <line x1="1048" y1="128" x2="1072" y2="128" class="solid"></line>
        <line x1="1080" y1="112" x2="1072" y2="128" class="solid"></line>
        <line x1="1048" y1="128" x2="1056" y2="144" class="solid"></line>
        <line x1="1072" y1="128" x2="1076" y2="136" class="solid"></line>
        <line x1="1152" y1="128" x2="1128" y2="176" class="solid"></line>
        <line x1="1112" y1="80" x2="1104" y2="96" class="solid"></line>
        <line x1="1112" y1="80" x2="1136" y2="128" class="solid"></line>
        <line x1="1104" y1="96" x2="1128" y2="144" class="solid"></line>
        <line x1="1108" y1="104" x2="1108" y2="192" class="broken"></line>
        <line x1="1116" y1="120" x2="1116" y2="152" class="broken"></line>
        <line x1="1120" y1="128" x2="1136" y2="128" class="solid"></line>
        <line x1="1124" y1="136" x2="1124" y2="144" class="solid"></line>
        <line x1="1136" y1="128" x2="1132" y2="136" class="solid"></line>
        <line x1="1132" y1="136" x2="1132" y2="144" class="solid"></line>
        <line x1="1116" y1="152" x2="1128" y2="176" class="solid"></line>
        <line x1="1096" y1="112" x2="1080" y2="144" class="solid"></line>
        <line x1="1096" y1="112" x2="1100" y2="120" class="solid"></line>
        <line x1="1100" y1="120" x2="1100" y2="184" class="solid"></line>
        <line x1="1056" y1="144" x2="1080" y2="144" class="solid"></line>
        <line x1="1076" y1="136" x2="1076" y2="144" class="solid"></line>
        <line x1="1084" y1="136" x2="1100" y2="136" class="broken"></line>
        <line x1="1100" y1="184" x2="1112" y2="208" class="solid"></line>
        <line x1="1076" y1="160" x2="1076" y2="184" class="solid"></line>
        <line x1="1076" y1="184" x2="1088" y2="208" class="solid"></line>
        <line x1="1088" y1="208" x2="1112" y2="208" class="solid"></line>
    </g>
    <g>
        <line x1="1104" y1="64" x2="1100" y2="72" class="solid"></line>
        <line x1="1100" y1="72" x2="1100" y2="112" class="broken"></line>
    </g>
    <g>
        <line x1="1096" y1="80" x2="1092" y2="88" class="solid"></line>
        <line x1="1092" y1="88" x2="1092" y2="96" class="solid"></line>
    </g>
    <g>
        <line x1="1088" y1="96" x2="1084" y2="104" class="solid"></line>
        <line x1="1084" y1="104" x2="1084" y2="112" class="solid"></line>
    </g>
    <g>
        <line x1="1116" y1="160" x2="1116" y2="208" class="solid"></line>
        <line x1="1116" y1="184" x2="1128" y2="184" class="broken"></line>
    </g>
    <g>
        <line x1="40" y1="64" x2="64" y2="64" class="solid"></line>
        <line x1="40" y1="64" x2="32" y2="80" class="solid"></line>
        <line x1="32" y1="80" x2="56" y2="80" class="solid"></line>
        <line x1="64" y1="64" x2="56" y2="80" class="solid"></line>
        <line x1="64" y1="64" x2="104" y2="144" class="solid"></line>
        <line x1="68" y1="72" x2="68" y2="80" class="solid"></line>
        <line x1="32" y1="80" x2="48" y2="112" class="solid"></line>
        <line x1="56" y1="80" x2="72" y2="112" class="solid"></line>
        <line x1="76" y1="88" x2="76" y2="128" class="broken"></line>
        <line x1="48" y1="112" x2="72" y2="112" class="solid"></line>
        <line x1="84" y1="104" x2="84" y2="112" class="solid"></line>
        <line x1="48" y1="112" x2="16" y2="176" class="solid"></line>
        <line x1="72" y1="112" x2="68" y2="120" class="solid"></line>
        <line x1="68" y1="120" x2="68" y2="128" class="solid"></line>
        <line x1="92" y1="120" x2="92" y2="128" class="solid"></line>
        <line x1="16" y1="176" x2="40" y2="176" class="solid"></line>
        <line x1="48" y1="160" x2="40" y2="176" class="solid"></line>
        <line x1="16" y1="176" x2="24" y2="192" class="solid"></line>
        <line x1="80" y1="128" x2="48" y2="192" class="solid"></line>
        <line x1="80" y1="128" x2="96" y2="160" class="solid"></line>
        <line x1="64" y1="160" x2="96" y2="160" class="solid"></line>
        <line x1="104" y1="144" x2="96" y2="160" class="solid"></line>
        <line x1="24" y1="192" x2="48" y2="192" class="solid"></line>
        <line x1="40" y1="176" x2="48" y2="192" class="solid"></line>
    </g>
    <g>
        <line x1="64" y1="128" x2="60" y2="136" class="solid"></line>
        <line x1="60" y1="136" x2="60" y2="144" class="solid"></line>
    </g>
    <g>
        <line x1="56" y1="144" x2="52" y2="152" class="solid"></line>
        <line x1="52" y1="152" x2="52" y2="160" class="solid"></line>
    </g>
    <g>
        <line x1="448" y1="64" x2="472" y2="64" class="solid"></line>
        <line x1="448" y1="64" x2="408" y2="144" class="solid"></line>
        <line x1="472" y1="64" x2="468" y2="72" class="solid"></line>
        <line x1="468" y1="72" x2="468" y2="80" class="solid"></line>
        <line x1="472" y1="64" x2="512" y2="144" class="solid"></line>
        <line x1="476" y1="72" x2="476" y2="80" class="solid"></line>
        <line x1="484" y1="88" x2="484" y2="96" class="solid"></line>
        <line x1="492" y1="104" x2="492" y2="112" class="solid"></line>
        <line x1="500" y1="120" x2="500" y2="128" class="solid"></line>
        <line x1="408" y1="144" x2="432" y2="144" class="solid"></line>
        <line x1="440" y1="128" x2="432" y2="144" class="solid"></line>
        <line x1="408" y1="144" x2="416" y2="160" class="solid"></line>
        <line x1="472" y1="96" x2="464" y2="112" class="solid"></line>
        <line x1="472" y1="96" x2="504" y2="160" class="solid"></line>
        <line x1="464" y1="112" x2="496" y2="176" class="solid"></line>
        <line x1="468" y1="120" x2="468" y2="128" class="solid"></line>
        <line x1="476" y1="136" x2="476" y2="144" class="solid"></line>
        <line x1="484" y1="152" x2="484" y2="160" class="solid"></line>
        <line x1="488" y1="160" x2="504" y2="160" class="solid"></line>
        <line x1="512" y1="144" x2="504" y2="160" class="solid"></line>
        <line x1="456" y1="128" x2="440" y2="160" class="solid"></line>
        <line x1="456" y1="128" x2="488" y2="192" class="solid"></line>
        <line x1="416" y1="160" x2="440" y2="160" class="solid"></line>
        <line x1="432" y1="144" x2="440" y2="160" class="solid"></line>
        <line x1="448" y1="160" x2="464" y2="192" class="solid"></line>
        <line x1="464" y1="192" x2="488" y2="192" class="solid"></line>
        <line x1="496" y1="176" x2="488" y2="192" class="solid"></line>
    </g>
    <g>
        <line x1="464" y1="80" x2="460" y2="88" class="solid"></line>
        <line x1="460" y1="88" x2="460" y2="128" class="broken"></line>
    </g>
    <g>
        <line x1="456" y1="96" x2="452" y2="104" class="solid"></line>
        <line x1="452" y1="104" x2="452" y2="112" class="solid"></line>
    </g>
    <g>
        <line x1="448" y1="112" x2="444" y2="120" class="solid"></line>
        <line x1="444" y1="120" x2="444" y2="128" class="solid"></line>
    </g>
    <g>
        <line x1="752" y1="64" x2="776" y2="64" class="solid"></line>
        <line x1="752" y1="64" x2="744" y2="80" class="solid"></line>
        <line x1="744" y1="80" x2="768" y2="80" class="solid"></line>
        <line x1="776" y1="64" x2="768" y2="80" class="solid"></line>
        <line x1="776" y1="64" x2="816" y2="144" class="solid"></line>
        <line x1="780" y1="72" x2="780" y2="80" class="solid"></line>
        <line x1="744" y1="80" x2="760" y2="112" class="solid"></line>
        <line x1="768" y1="80" x2="784" y2="112" class="solid"></line>
        <line x1="788" y1="88" x2="788" y2="128" class="broken"></line>
        <line x1="760" y1="112" x2="784" y2="112" class="solid"></line>
        <line x1="796" y1="104" x2="796" y2="112" class="solid"></line>
        <line x1="760" y1="112" x2="728" y2="176" class="solid"></line>
        <line x1="784" y1="112" x2="780" y2="120" class="solid"></line>
        <line x1="780" y1="120" x2="780" y2="128" class="solid"></line>
        <line x1="804" y1="120" x2="804" y2="128" class="solid"></line>
        <line x1="728" y1="176" x2="752" y2="176" class="solid"></line>
        <line x1="760" y1="160" x2="752" y2="176" class="solid"></line>
        <line x1="728" y1="176" x2="736" y2="192" class="solid"></line>
        <line x1="792" y1="128" x2="760" y2="192" class="solid"></line>
        <line x1="792" y1="128" x2="808" y2="160" class="solid"></line>
        <line x1="776" y1="160" x2="808" y2="160" class="solid"></line>
        <line x1="816" y1="144" x2="808" y2="160" class="solid"></line>
        <line x1="736" y1="192" x2="760" y2="192" class="solid"></line>
        <line x1="752" y1="176" x2="760" y2="192" class="solid"></line>
    </g>
    <g>
        <line x1="776" y1="128" x2="772" y2="136" class="solid"></line>
        <line x1="772" y1="136" x2="772" y2="144" class="solid"></line>
    </g>
    <g>
        <line x1="768" y1="144" x2="764" y2="152" class="solid"></line>
        <line x1="764" y1="152" x2="764" y2="160" class="solid"></line>
    </g>
    <g>
        <line x1="864" y1="64" x2="888" y2="64" class="solid"></line>
        <line x1="864" y1="64" x2="856" y2="80" class="solid"></line>
        <line x1="856" y1="80" x2="880" y2="80" class="solid"></line>
        <line x1="888" y1="64" x2="880" y2="80" class="solid"></line>
        <line x1="888" y1="64" x2="928" y2="144" class="solid"></line>
        <line x1="892" y1="72" x2="892" y2="80" class="solid"></line>
        <line x1="856" y1="80" x2="872" y2="112" class="solid"></line>
        <line x1="880" y1="80" x2="896" y2="112" class="solid"></line>
        <line x1="900" y1="88" x2="900" y2="128" class="broken"></line>
        <line x1="872" y1="112" x2="896" y2="112" class="solid"></line>
        <line x1="908" y1="104" x2="908" y2="112" class="solid"></line>
        <line x1="872" y1="112" x2="840" y2="176" class="solid"></line>
        <line x1="896" y1="112" x2="892" y2="120" class="solid"></line>
        <line x1="892" y1="120" x2="892" y2="128" class="solid"></line>
        <line x1="916" y1="120" x2="916" y2="128" class="solid"></line>
        <line x1="840" y1="176" x2="864" y2="176" class="solid"></line>
        <line x1="872" y1="160" x2="864" y2="176" class="solid"></line>
        <line x1="840" y1="176" x2="848" y2="192" class="solid"></line>
        <line x1="904" y1="128" x2="872" y2="192" class="solid"></line>
        <line x1="904" y1="128" x2="920" y2="160" class="solid"></line>
        <line x1="888" y1="160" x2="920" y2="160" class="solid"></line>
        <line x1="928" y1="144" x2="920" y2="160" class="solid"></line>
        <line x1="848" y1="192" x2="872" y2="192" class="solid"></line>
        <line x1="864" y1="176" x2="872" y2="192" class="solid"></line>
    </g>
    <g>
        <line x1="888" y1="128" x2="884" y2="136" class="solid"></line>
        <line x1="884" y1="136" x2="884" y2="144" class="solid"></line>
    </g>
    <g>
        <line x1="880" y1="144" x2="876" y2="152" class="solid"></line>
        <line x1="876" y1="152" x2="876" y2="160" class="solid"></line>
    </g>
    <g>
        <line x1="1196" y1="64" x2="1220" y2="64" class="solid"></line>
        <line x1="1196" y1="64" x2="1196" y2="128" class="solid"></line>
        <line x1="1220" y1="64" x2="1220" y2="128" class="solid"></line>
        <line x1="1196" y1="128" x2="1220" y2="128" class="solid"></line>
        <line x1="1200" y1="128" x2="1176" y2="176" class="solid"></line>
        <line x1="1176" y1="176" x2="1200" y2="176" class="solid"></line>
        <line x1="1208" y1="160" x2="1200" y2="176" class="solid"></line>
        <line x1="1176" y1="176" x2="1184" y2="192" class="solid"></line>
        <line x1="1232" y1="144" x2="1208" y2="192" class="solid"></line>
        <line x1="1228" y1="152" x2="1264" y2="152" class="broken"></line>
        <line x1="1184" y1="192" x2="1208" y2="192" class="solid"></line>
        <line x1="1200" y1="176" x2="1208" y2="192" class="solid"></line>
    </g>
    <g>
        <line x1="1224" y1="64" x2="1232" y2="80" class="solid"></line>
        <line x1="1228" y1="72" x2="1228" y2="144" class="broken"></line>
    </g>
    <g>
        <line x1="1236" y1="96" x2="1236" y2="144" class="broken"></line>
        <line x1="1236" y1="128" x2="1256" y2="128" class="solid"></line>
        <line x1="1256" y1="128" x2="1264" y2="144" class="solid"></line>
    </g>
    <g>
        <line x1="1224" y1="128" x2="1220" y2="136" class="solid"></line>
        <line x1="1220" y1="136" x2="1220" y2="144" class="solid"></line>
    </g>
    <g>
        <line x1="1216" y1="144" x2="1212" y2="152" class="solid"></line>
        <line x1="1212" y1="152" x2="1212" y2="160" class="solid"></line>
    </g>
</svg>