<svg xmlns="http://www.w3.org/2000/svg" width="1224" height="224" class="svgbob">
    <style>
        .svgbob line,
        .svgbob path,
        .svgbob circle,
        .svgbob rect,
        .svgbob polygon {
            stroke: #c9d1d9;
            stroke-width: 2;
            stroke-opacity: 1;
            fill-opacity: 1;
            stroke-linecap: round;
            stroke-linejoin: miter;
        }

        .svgbob text {
            white-space: pre;
            fill: #c9d1d9;
            font-family: Iosevka Fixed, monospace;
            font-size: 14px;
        }

        .svgbob rect.backdrop {
            stroke: none;
            fill: #282c34;
        }

        .svgbob .broken {
            stroke-dasharray: 8;
        }

        .svgbob .filled {
            fill: #c9d1d9;
        }

        .svgbob .bg_filled {
            fill: #282c34;
            stroke-width: 1;
        }

        .svgbob .nofill {
            fill: #282c34;
        }

        .svgbob .end_marked_arrow {
            marker-end: url(#arrow);
        }

        .svgbob .start_marked_arrow {
            marker-start: url(#arrow);
        }

        .svgbob .end_marked_diamond {
            marker-end: url(#diamond);
        }

        .svgbob .start_marked_diamond {
            marker-start: url(#diamond);
        }

        .svgbob .end_marked_circle {
            marker-end: url(#circle);
        }

        .svgbob .start_marked_circle {
            marker-start: url(#circle);
        }

        .svgbob .end_marked_open_circle {
            marker-end: url(#open_circle);
        }

        .svgbob .start_marked_open_circle {
            marker-start: url(#open_circle);
        }

        .svgbob .end_marked_big_open_circle {
            marker-end: url(#big_open_circle);
        }

        .svgbob .start_marked_big_open_circle {
            marker-start: url(#big_open_circle);
        }
    </style>
    <defs>
        <marker id="arrow" viewBox="-2 -2 8 8" refX="4" refY="2" markerWidth="7" markerHeight="7"
            orient="auto-start-reverse">
            <polygon points="0,0 0,4 4,2 0,0"></polygon>
        </marker>
        <marker id="diamond" viewBox="-2 -2 8 8" refX="4" refY="2" markerWidth="7" markerHeight="7"
            orient="auto-start-reverse">
            <polygon points="0,2 2,0 4,2 2,4 0,2"></polygon>
        </marker>
        <marker id="circle" viewBox="0 0 8 8" refX="4" refY="4" markerWidth="7" markerHeight="7"
            orient="auto-start-reverse">
            <circle cx="4" cy="4" r="2" class="filled"></circle>
        </marker>
        <marker id="open_circle" viewBox="0 0 8 8" refX="4" refY="4" markerWidth="7" markerHeight="7"
            orient="auto-start-reverse">
            <circle cx="4" cy="4" r="2" class="bg_filled"></circle>
        </marker>
        <marker id="big_open_circle" viewBox="0 0 8 8" refX="4" refY="4" markerWidth="7" markerHeight="7"
            orient="auto-start-reverse">
            <circle cx="4" cy="4" r="3" class="bg_filled"></circle>
        </marker>
    </defs>
    <rect class="backdrop" x="0" y="0" width="1224" height="224"></rect><text x="154" y="76">::</text><text x="146"
        y="92">:</text><text x="170" y="92">:</text><text x="138" y="108">:</text><text x="178" y="108">:</text><text
        x="138" y="156">:</text><text x="178" y="156">:</text><text x="146" y="172">:</text><text x="170"
        y="172">:</text><text x="154" y="188">::</text><text x="234" y="76">|</text><text x="282" y="92">:</text>
    <line x1="276" y1="96" x2="276" y2="128" class="solid"></line><text x="290" y="108">:</text><text x="250"
        y="124">:</text><text x="298" y="124">:</text><text x="250" y="156">:</text><text x="258" y="172">:</text><text
        x="266" y="188">:</text><text x="450" y="76">:</text><text x="442" y="92">:</text><text x="434"
        y="108">:</text><text x="466" y="108">:</text><text x="458" y="124">:</text><text x="450" y="140">:</text><text
        x="434" y="156">:</text><text x="450" y="188">:</text><text x="658" y="76">::</text><text x="650"
        y="92">:</text><text x="642" y="108">:</text><text x="682" y="108">:</text><text x="666" y="124">:</text><text
        x="690" y="124">:</text><text x="658" y="140">:</text><text x="642" y="156">:</text><text x="658"
        y="188">:</text><text x="962" y="76">:</text><text x="954" y="92">:</text><text x="946" y="108">:</text><text
        x="978" y="108">:</text><text x="970" y="124">:</text><text x="962" y="140">:</text><text x="994"
        y="140">:</text><text x="946" y="156">:</text><text x="986" y="156">:</text><text x="978" y="172">:</text><text
        x="962" y="188">::</text><text x="1074" y="76">::</text><text x="1066" y="92">:</text><text x="1058"
        y="108">:</text><text x="1074" y="140">:</text><text x="1090" y="140">:::</text><text x="1058"
        y="156">:</text><text x="1074" y="188">:</text><text x="58" y="92">:</text><text x="42" y="124">:</text><text
        x="34" y="140">:</text><text x="58" y="140">:</text><text x="66" y="156">:</text><text x="74"
        y="172">:</text><text x="770" y="92">:</text><text x="754" y="124">:</text><text x="746" y="140">:</text><text
        x="770" y="140">:</text><text x="778" y="156">:</text><text x="786" y="172">:</text><text x="866"
        y="92">:</text><text x="850" y="124">:</text><text x="842" y="140">:</text><text x="866" y="140">:</text><text
        x="874" y="156">:</text><text x="882" y="172">:</text><text x="1154" y="92">|</text><text x="1162"
        y="140">::</text><text x="1194" y="156">:</text><text x="1202" y="172">:</text><text x="522"
        y="124">:</text><text x="578" y="124">:</text><text x="530" y="140">:</text><text x="570" y="140">:</text><text
        x="538" y="156">:</text><text x="562" y="156">:</text><text x="546" y="172">::</text>
    <g>
        <line x1="136" y1="48" x2="160" y2="48" class="solid"></line>
        <line x1="136" y1="48" x2="96" y2="128" class="solid"></line>
        <line x1="160" y1="48" x2="156" y2="56" class="solid"></line>
        <line x1="156" y1="56" x2="156" y2="64" class="solid"></line>
        <line x1="160" y1="48" x2="200" y2="128" class="solid"></line>
        <line x1="164" y1="56" x2="164" y2="64" class="solid"></line>
        <line x1="172" y1="72" x2="172" y2="80" class="solid"></line>
        <line x1="180" y1="88" x2="180" y2="96" class="solid"></line>
        <line x1="188" y1="104" x2="188" y2="144" class="broken"></line>
        <line x1="96" y1="128" x2="120" y2="128" class="solid"></line>
        <line x1="128" y1="112" x2="120" y2="128" class="solid"></line>
        <line x1="96" y1="128" x2="136" y2="208" class="solid"></line>
        <line x1="120" y1="128" x2="160" y2="208" class="solid"></line>
        <line x1="200" y1="128" x2="160" y2="208" class="solid"></line>
        <line x1="136" y1="208" x2="160" y2="208" class="solid"></line>
    </g>
    <g>
        <line x1="152" y1="64" x2="148" y2="72" class="solid"></line>
        <line x1="148" y1="72" x2="148" y2="80" class="solid"></line>
    </g>
    <g>
        <line x1="144" y1="80" x2="140" y2="88" class="solid"></line>
        <line x1="140" y1="88" x2="140" y2="96" class="solid"></line>
    </g>
    <g>
        <line x1="160" y1="80" x2="136" y2="128" class="solid"></line>
        <line x1="160" y1="80" x2="184" y2="128" class="solid"></line>
        <line x1="136" y1="128" x2="160" y2="176" class="solid"></line>
        <line x1="140" y1="136" x2="140" y2="144" class="solid"></line>
        <line x1="148" y1="152" x2="148" y2="160" class="solid"></line>
        <line x1="156" y1="168" x2="156" y2="176" class="solid"></line>
        <line x1="152" y1="112" x2="160" y2="128" class="solid"></line>
        <line x1="160" y1="128" x2="184" y2="128" class="solid"></line>
        <line x1="160" y1="128" x2="152" y2="144" class="solid"></line>
        <line x1="184" y1="128" x2="180" y2="136" class="solid"></line>
        <line x1="180" y1="136" x2="180" y2="144" class="solid"></line>
    </g>
    <g>
        <line x1="136" y1="96" x2="132" y2="104" class="solid"></line>
        <line x1="132" y1="104" x2="132" y2="144" class="broken"></line>
    </g>
    <g>
        <line x1="176" y1="144" x2="172" y2="152" class="solid"></line>
        <line x1="172" y1="152" x2="172" y2="160" class="solid"></line>
    </g>
    <g>
        <line x1="168" y1="160" x2="164" y2="168" class="solid"></line>
        <line x1="164" y1="168" x2="164" y2="176" class="solid"></line>
    </g>
    <g>
        <line x1="248" y1="48" x2="272" y2="48" class="solid"></line>
        <line x1="248" y1="48" x2="240" y2="64" class="solid"></line>
        <line x1="240" y1="64" x2="264" y2="64" class="solid"></line>
        <line x1="272" y1="48" x2="268" y2="56" class="solid"></line>
        <line x1="268" y1="56" x2="268" y2="128" class="broken"></line>
        <line x1="272" y1="48" x2="312" y2="128" class="solid"></line>
        <line x1="276" y1="56" x2="276" y2="88" class="broken"></line>
        <line x1="284" y1="72" x2="284" y2="80" class="solid"></line>
        <line x1="276" y1="88" x2="304" y2="144" class="solid"></line>
        <line x1="292" y1="88" x2="292" y2="96" class="solid"></line>
        <line x1="300" y1="104" x2="300" y2="112" class="solid"></line>
        <line x1="236" y1="80" x2="236" y2="112" class="solid"></line>
        <line x1="260" y1="80" x2="260" y2="128" class="broken"></line>
        <line x1="216" y1="112" x2="260" y2="112" class="solid"></line>
        <line x1="216" y1="112" x2="208" y2="128" class="solid"></line>
        <line x1="208" y1="128" x2="232" y2="128" class="solid"></line>
        <line x1="240" y1="112" x2="232" y2="128" class="solid"></line>
        <line x1="244" y1="112" x2="244" y2="144" class="broken"></line>
        <line x1="208" y1="128" x2="248" y2="208" class="solid"></line>
        <line x1="232" y1="128" x2="272" y2="208" class="solid"></line>
        <line x1="248" y1="208" x2="272" y2="208" class="solid"></line>
        <line x1="248" y1="128" x2="280" y2="192" class="solid"></line>
        <line x1="252" y1="136" x2="276" y2="136" class="broken"></line>
        <line x1="252" y1="136" x2="252" y2="144" class="solid"></line>
        <line x1="272" y1="128" x2="280" y2="144" class="solid"></line>
        <line x1="280" y1="144" x2="304" y2="144" class="solid"></line>
        <line x1="312" y1="128" x2="304" y2="144" class="solid"></line>
        <line x1="260" y1="152" x2="260" y2="160" class="solid"></line>
        <line x1="268" y1="168" x2="268" y2="176" class="solid"></line>
        <line x1="280" y1="192" x2="272" y2="208" class="solid"></line>
    </g>
    <g>
        <line x1="432" y1="48" x2="456" y2="48" class="solid"></line>
        <line x1="432" y1="48" x2="392" y2="128" class="solid"></line>
        <line x1="456" y1="48" x2="452" y2="56" class="solid"></line>
        <line x1="452" y1="56" x2="452" y2="64" class="solid"></line>
        <line x1="456" y1="48" x2="464" y2="64" class="solid"></line>
        <line x1="464" y1="64" x2="432" y2="128" class="solid"></line>
        <line x1="456" y1="80" x2="472" y2="80" class="solid"></line>
        <line x1="472" y1="80" x2="468" y2="88" class="solid"></line>
        <line x1="468" y1="88" x2="468" y2="96" class="solid"></line>
        <line x1="472" y1="80" x2="480" y2="96" class="solid"></line>
        <line x1="480" y1="96" x2="448" y2="160" class="solid"></line>
        <line x1="392" y1="128" x2="416" y2="128" class="solid"></line>
        <line x1="424" y1="112" x2="416" y2="128" class="solid"></line>
        <line x1="392" y1="128" x2="432" y2="208" class="solid"></line>
        <line x1="416" y1="128" x2="456" y2="208" class="solid"></line>
        <line x1="432" y1="128" x2="440" y2="144" class="solid"></line>
        <line x1="436" y1="136" x2="436" y2="144" class="solid"></line>
        <line x1="448" y1="160" x2="464" y2="192" class="solid"></line>
        <line x1="452" y1="168" x2="452" y2="176" class="solid"></line>
        <line x1="432" y1="208" x2="456" y2="208" class="solid"></line>
        <line x1="464" y1="192" x2="456" y2="208" class="solid"></line>
    </g>
    <g>
        <line x1="448" y1="64" x2="444" y2="72" class="solid"></line>
        <line x1="444" y1="72" x2="444" y2="80" class="solid"></line>
    </g>
    <g>
        <line x1="440" y1="80" x2="436" y2="88" class="solid"></line>
        <line x1="436" y1="88" x2="436" y2="96" class="solid"></line>
    </g>
    <g>
        <line x1="432" y1="96" x2="428" y2="104" class="solid"></line>
        <line x1="428" y1="104" x2="428" y2="144" class="broken"></line>
    </g>
    <g>
        <line x1="464" y1="96" x2="460" y2="104" class="solid"></line>
        <line x1="460" y1="104" x2="460" y2="112" class="solid"></line>
    </g>
    <g>
        <line x1="456" y1="112" x2="452" y2="120" class="solid"></line>
        <line x1="452" y1="120" x2="452" y2="128" class="solid"></line>
    </g>
    <g>
        <line x1="448" y1="128" x2="444" y2="136" class="solid"></line>
        <line x1="444" y1="136" x2="444" y2="176" class="broken"></line>
    </g>
    <g>
        <line x1="640" y1="48" x2="664" y2="48" class="solid"></line>
        <line x1="640" y1="48" x2="600" y2="128" class="solid"></line>
        <line x1="664" y1="48" x2="660" y2="56" class="solid"></line>
        <line x1="660" y1="56" x2="660" y2="64" class="solid"></line>
        <line x1="664" y1="48" x2="704" y2="128" class="solid"></line>
        <line x1="668" y1="56" x2="668" y2="64" class="solid"></line>
        <line x1="676" y1="72" x2="676" y2="112" class="broken"></line>
        <line x1="684" y1="88" x2="684" y2="96" class="solid"></line>
        <line x1="692" y1="104" x2="692" y2="112" class="solid"></line>
        <line x1="600" y1="128" x2="624" y2="128" class="solid"></line>
        <line x1="632" y1="112" x2="624" y2="128" class="solid"></line>
        <line x1="600" y1="128" x2="640" y2="208" class="solid"></line>
        <line x1="624" y1="128" x2="664" y2="208" class="solid"></line>
        <line x1="640" y1="208" x2="664" y2="208" class="solid"></line>
        <line x1="680" y1="112" x2="656" y2="160" class="solid"></line>
        <line x1="680" y1="112" x2="696" y2="144" class="solid"></line>
        <line x1="664" y1="144" x2="696" y2="144" class="solid"></line>
        <line x1="704" y1="128" x2="696" y2="144" class="solid"></line>
        <line x1="656" y1="160" x2="672" y2="192" class="solid"></line>
        <line x1="660" y1="168" x2="660" y2="176" class="solid"></line>
        <line x1="672" y1="192" x2="664" y2="208" class="solid"></line>
    </g>
    <g>
        <line x1="656" y1="64" x2="652" y2="72" class="solid"></line>
        <line x1="652" y1="72" x2="652" y2="80" class="solid"></line>
    </g>
    <g>
        <line x1="648" y1="80" x2="644" y2="88" class="solid"></line>
        <line x1="644" y1="88" x2="644" y2="96" class="solid"></line>
    </g>
    <g>
        <line x1="664" y1="80" x2="640" y2="128" class="solid"></line>
        <line x1="664" y1="80" x2="672" y2="96" class="solid"></line>
        <line x1="652" y1="104" x2="668" y2="104" class="broken"></line>
        <line x1="672" y1="96" x2="668" y2="104" class="solid"></line>
        <line x1="668" y1="104" x2="668" y2="112" class="solid"></line>
        <line x1="640" y1="128" x2="648" y2="144" class="solid"></line>
        <line x1="644" y1="136" x2="644" y2="144" class="solid"></line>
    </g>
    <g>
        <line x1="640" y1="96" x2="636" y2="104" class="solid"></line>
        <line x1="636" y1="104" x2="636" y2="144" class="broken"></line>
    </g>
    <g>
        <line x1="664" y1="112" x2="660" y2="120" class="solid"></line>
        <line x1="660" y1="120" x2="660" y2="128" class="solid"></line>
    </g>
    <g>
        <line x1="656" y1="128" x2="652" y2="136" class="solid"></line>
        <line x1="652" y1="136" x2="652" y2="176" class="broken"></line>
    </g>
    <g>
        <line x1="944" y1="48" x2="968" y2="48" class="solid"></line>
        <line x1="944" y1="48" x2="904" y2="128" class="solid"></line>
        <line x1="968" y1="48" x2="964" y2="56" class="solid"></line>
        <line x1="964" y1="56" x2="964" y2="64" class="solid"></line>
        <line x1="968" y1="48" x2="976" y2="64" class="solid"></line>
        <line x1="976" y1="64" x2="944" y2="128" class="solid"></line>
        <line x1="968" y1="80" x2="984" y2="80" class="solid"></line>
        <line x1="984" y1="80" x2="980" y2="88" class="solid"></line>
        <line x1="980" y1="88" x2="980" y2="96" class="solid"></line>
        <line x1="984" y1="80" x2="992" y2="96" class="solid"></line>
        <line x1="992" y1="96" x2="960" y2="160" class="solid"></line>
        <line x1="984" y1="112" x2="1000" y2="112" class="solid"></line>
        <line x1="904" y1="128" x2="928" y2="128" class="solid"></line>
        <line x1="936" y1="112" x2="928" y2="128" class="solid"></line>
        <line x1="1000" y1="112" x2="996" y2="120" class="solid"></line>
        <line x1="996" y1="120" x2="996" y2="128" class="solid"></line>
        <line x1="1000" y1="112" x2="1008" y2="128" class="solid"></line>
        <line x1="904" y1="128" x2="944" y2="208" class="solid"></line>
        <line x1="928" y1="128" x2="968" y2="208" class="solid"></line>
        <line x1="944" y1="128" x2="952" y2="144" class="solid"></line>
        <line x1="948" y1="136" x2="948" y2="144" class="solid"></line>
        <line x1="1008" y1="128" x2="968" y2="208" class="solid"></line>
        <line x1="960" y1="160" x2="968" y2="176" class="solid"></line>
        <line x1="964" y1="168" x2="964" y2="176" class="solid"></line>
        <line x1="944" y1="208" x2="968" y2="208" class="solid"></line>
    </g>
    <g>
        <line x1="960" y1="64" x2="956" y2="72" class="solid"></line>
        <line x1="956" y1="72" x2="956" y2="80" class="solid"></line>
    </g>
    <g>
        <line x1="952" y1="80" x2="948" y2="88" class="solid"></line>
        <line x1="948" y1="88" x2="948" y2="96" class="solid"></line>
    </g>
    <g>
        <line x1="944" y1="96" x2="940" y2="104" class="solid"></line>
        <line x1="940" y1="104" x2="940" y2="144" class="broken"></line>
    </g>
    <g>
        <line x1="976" y1="96" x2="972" y2="104" class="solid"></line>
        <line x1="972" y1="104" x2="972" y2="112" class="solid"></line>
    </g>
    <g>
        <line x1="968" y1="112" x2="964" y2="120" class="solid"></line>
        <line x1="964" y1="120" x2="964" y2="128" class="solid"></line>
    </g>
    <g>
        <line x1="960" y1="128" x2="956" y2="136" class="solid"></line>
        <line x1="956" y1="136" x2="956" y2="176" class="broken"></line>
    </g>
    <g>
        <line x1="992" y1="128" x2="988" y2="136" class="solid"></line>
        <line x1="988" y1="136" x2="988" y2="144" class="solid"></line>
    </g>
    <g>
        <line x1="984" y1="144" x2="980" y2="152" class="solid"></line>
        <line x1="980" y1="152" x2="980" y2="160" class="solid"></line>
    </g>
    <g>
        <line x1="976" y1="160" x2="972" y2="168" class="solid"></line>
        <line x1="972" y1="168" x2="972" y2="176" class="solid"></line>
    </g>
    <g>
        <line x1="1056" y1="48" x2="1080" y2="48" class="solid"></line>
        <line x1="1056" y1="48" x2="1016" y2="128" class="solid"></line>
        <line x1="1080" y1="48" x2="1076" y2="56" class="solid"></line>
        <line x1="1076" y1="56" x2="1076" y2="64" class="solid"></line>
        <line x1="1080" y1="48" x2="1104" y2="96" class="solid"></line>
        <line x1="1084" y1="56" x2="1084" y2="64" class="solid"></line>
        <line x1="1092" y1="72" x2="1092" y2="112" class="broken"></line>
        <line x1="1104" y1="96" x2="1092" y2="120" class="solid"></line>
        <line x1="1016" y1="128" x2="1040" y2="128" class="solid"></line>
        <line x1="1048" y1="112" x2="1040" y2="128" class="solid"></line>
        <line x1="1092" y1="120" x2="1092" y2="128" class="solid"></line>
        <line x1="1088" y1="128" x2="1120" y2="128" class="solid"></line>
        <line x1="1016" y1="128" x2="1056" y2="208" class="solid"></line>
        <line x1="1040" y1="128" x2="1080" y2="208" class="solid"></line>
        <line x1="1120" y1="128" x2="1112" y2="144" class="solid"></line>
        <line x1="1056" y1="208" x2="1080" y2="208" class="solid"></line>
        <line x1="1080" y1="144" x2="1072" y2="160" class="solid"></line>
        <line x1="1076" y1="152" x2="1112" y2="152" class="broken"></line>
        <line x1="1072" y1="160" x2="1088" y2="192" class="solid"></line>
        <line x1="1076" y1="168" x2="1076" y2="176" class="solid"></line>
        <line x1="1088" y1="192" x2="1080" y2="208" class="solid"></line>
    </g>
    <g>
        <line x1="1072" y1="64" x2="1068" y2="72" class="solid"></line>
        <line x1="1068" y1="72" x2="1068" y2="80" class="solid"></line>
    </g>
    <g>
        <line x1="1064" y1="80" x2="1060" y2="88" class="solid"></line>
        <line x1="1060" y1="88" x2="1060" y2="96" class="solid"></line>
    </g>
    <g>
        <line x1="1080" y1="80" x2="1056" y2="128" class="solid"></line>
        <line x1="1080" y1="80" x2="1088" y2="96" class="solid"></line>
        <line x1="1068" y1="104" x2="1084" y2="104" class="broken"></line>
        <line x1="1088" y1="96" x2="1084" y2="104" class="solid"></line>
        <line x1="1084" y1="104" x2="1084" y2="144" class="broken"></line>
        <line x1="1056" y1="128" x2="1064" y2="144" class="solid"></line>
        <line x1="1060" y1="136" x2="1060" y2="144" class="solid"></line>
    </g>
    <g>
        <line x1="1056" y1="96" x2="1052" y2="104" class="solid"></line>
        <line x1="1052" y1="104" x2="1052" y2="144" class="broken"></line>
    </g>
    <g>
        <line x1="1080" y1="112" x2="1076" y2="120" class="solid"></line>
        <line x1="1076" y1="120" x2="1076" y2="128" class="solid"></line>
    </g>
    <g>
        <line x1="1072" y1="128" x2="1068" y2="136" class="solid"></line>
        <line x1="1068" y1="136" x2="1068" y2="176" class="broken"></line>
    </g>
    <g>
        <line x1="40" y1="64" x2="64" y2="64" class="solid"></line>
        <line x1="40" y1="64" x2="0" y2="144" class="solid"></line>
        <line x1="64" y1="64" x2="60" y2="72" class="solid"></line>
        <line x1="60" y1="72" x2="60" y2="80" class="solid"></line>
        <line x1="64" y1="64" x2="72" y2="80" class="solid"></line>
        <line x1="72" y1="80" x2="56" y2="112" class="solid"></line>
        <line x1="56" y1="112" x2="88" y2="176" class="solid"></line>
        <line x1="60" y1="120" x2="60" y2="128" class="solid"></line>
        <line x1="0" y1="144" x2="24" y2="144" class="solid"></line>
        <line x1="32" y1="128" x2="24" y2="144" class="solid"></line>
        <line x1="68" y1="136" x2="68" y2="144" class="solid"></line>
        <line x1="0" y1="144" x2="8" y2="160" class="solid"></line>
        <line x1="76" y1="152" x2="76" y2="160" class="solid"></line>
        <line x1="48" y1="128" x2="32" y2="160" class="solid"></line>
        <line x1="48" y1="128" x2="80" y2="192" class="solid"></line>
        <line x1="8" y1="160" x2="32" y2="160" class="solid"></line>
        <line x1="24" y1="144" x2="32" y2="160" class="solid"></line>
        <line x1="40" y1="160" x2="56" y2="192" class="solid"></line>
        <line x1="56" y1="192" x2="80" y2="192" class="solid"></line>
        <line x1="88" y1="176" x2="80" y2="192" class="solid"></line>
    </g>
    <g>
        <line x1="56" y1="80" x2="52" y2="88" class="solid"></line>
        <line x1="52" y1="88" x2="52" y2="128" class="broken"></line>
    </g>
    <g>
        <line x1="48" y1="96" x2="44" y2="104" class="solid"></line>
        <line x1="44" y1="104" x2="44" y2="112" class="solid"></line>
    </g>
    <g>
        <line x1="40" y1="112" x2="36" y2="120" class="solid"></line>
        <line x1="36" y1="120" x2="36" y2="128" class="solid"></line>
    </g>
    <g>
        <line x1="752" y1="64" x2="776" y2="64" class="solid"></line>
        <line x1="752" y1="64" x2="712" y2="144" class="solid"></line>
        <line x1="776" y1="64" x2="772" y2="72" class="solid"></line>
        <line x1="772" y1="72" x2="772" y2="80" class="solid"></line>
        <line x1="776" y1="64" x2="784" y2="80" class="solid"></line>
        <line x1="784" y1="80" x2="768" y2="112" class="solid"></line>
        <line x1="768" y1="112" x2="800" y2="176" class="solid"></line>
        <line x1="772" y1="120" x2="772" y2="128" class="solid"></line>
        <line x1="712" y1="144" x2="736" y2="144" class="solid"></line>
        <line x1="744" y1="128" x2="736" y2="144" class="solid"></line>
        <line x1="780" y1="136" x2="780" y2="144" class="solid"></line>
        <line x1="712" y1="144" x2="720" y2="160" class="solid"></line>
        <line x1="788" y1="152" x2="788" y2="160" class="solid"></line>
        <line x1="760" y1="128" x2="744" y2="160" class="solid"></line>
        <line x1="760" y1="128" x2="792" y2="192" class="solid"></line>
        <line x1="720" y1="160" x2="744" y2="160" class="solid"></line>
        <line x1="736" y1="144" x2="744" y2="160" class="solid"></line>
        <line x1="752" y1="160" x2="768" y2="192" class="solid"></line>
        <line x1="768" y1="192" x2="792" y2="192" class="solid"></line>
        <line x1="800" y1="176" x2="792" y2="192" class="solid"></line>
    </g>
    <g>
        <line x1="768" y1="80" x2="764" y2="88" class="solid"></line>
        <line x1="764" y1="88" x2="764" y2="128" class="broken"></line>
    </g>
    <g>
        <line x1="760" y1="96" x2="756" y2="104" class="solid"></line>
        <line x1="756" y1="104" x2="756" y2="112" class="solid"></line>
    </g>
    <g>
        <line x1="752" y1="112" x2="748" y2="120" class="solid"></line>
        <line x1="748" y1="120" x2="748" y2="128" class="solid"></line>
    </g>
    <g>
        <line x1="848" y1="64" x2="872" y2="64" class="solid"></line>
        <line x1="848" y1="64" x2="808" y2="144" class="solid"></line>
        <line x1="872" y1="64" x2="868" y2="72" class="solid"></line>
        <line x1="868" y1="72" x2="868" y2="80" class="solid"></line>
        <line x1="872" y1="64" x2="880" y2="80" class="solid"></line>
        <line x1="880" y1="80" x2="864" y2="112" class="solid"></line>
        <line x1="864" y1="112" x2="896" y2="176" class="solid"></line>
        <line x1="868" y1="120" x2="868" y2="128" class="solid"></line>
        <line x1="808" y1="144" x2="832" y2="144" class="solid"></line>
        <line x1="840" y1="128" x2="832" y2="144" class="solid"></line>
        <line x1="876" y1="136" x2="876" y2="144" class="solid"></line>
        <line x1="808" y1="144" x2="816" y2="160" class="solid"></line>
        <line x1="884" y1="152" x2="884" y2="160" class="solid"></line>
        <line x1="856" y1="128" x2="840" y2="160" class="solid"></line>
        <line x1="856" y1="128" x2="888" y2="192" class="solid"></line>
        <line x1="816" y1="160" x2="840" y2="160" class="solid"></line>
        <line x1="832" y1="144" x2="840" y2="160" class="solid"></line>
        <line x1="848" y1="160" x2="864" y2="192" class="solid"></line>
        <line x1="864" y1="192" x2="888" y2="192" class="solid"></line>
        <line x1="896" y1="176" x2="888" y2="192" class="solid"></line>
    </g>
    <g>
        <line x1="864" y1="80" x2="860" y2="88" class="solid"></line>
        <line x1="860" y1="88" x2="860" y2="128" class="broken"></line>
    </g>
    <g>
        <line x1="856" y1="96" x2="852" y2="104" class="solid"></line>
        <line x1="852" y1="104" x2="852" y2="112" class="solid"></line>
    </g>
    <g>
        <line x1="848" y1="112" x2="844" y2="120" class="solid"></line>
        <line x1="844" y1="120" x2="844" y2="128" class="solid"></line>
    </g>
    <g>
        <line x1="1168" y1="64" x2="1196" y2="64" class="solid"></line>
        <line x1="1168" y1="64" x2="1160" y2="80" class="solid"></line>
        <line x1="1160" y1="80" x2="1184" y2="80" class="solid"></line>
        <line x1="1192" y1="64" x2="1188" y2="72" class="solid"></line>
        <line x1="1188" y1="72" x2="1188" y2="144" class="broken"></line>
        <line x1="1196" y1="64" x2="1196" y2="128" class="solid"></line>
    </g>
    <g>
        <line x1="1156" y1="96" x2="1156" y2="128" class="solid"></line>
        <line x1="1180" y1="96" x2="1180" y2="144" class="broken"></line>
        <line x1="1136" y1="128" x2="1180" y2="128" class="solid"></line>
        <line x1="1136" y1="128" x2="1128" y2="144" class="solid"></line>
        <line x1="1128" y1="144" x2="1152" y2="144" class="solid"></line>
        <line x1="1160" y1="128" x2="1152" y2="144" class="solid"></line>
    </g>
    <g>
        <line x1="1192" y1="128" x2="1216" y2="176" class="solid"></line>
        <line x1="1196" y1="136" x2="1196" y2="144" class="solid"></line>
        <line x1="1204" y1="152" x2="1204" y2="160" class="solid"></line>
        <line x1="1152" y1="152" x2="1188" y2="152" class="broken"></line>
        <line x1="1184" y1="144" x2="1208" y2="192" class="solid"></line>
        <line x1="1160" y1="144" x2="1184" y2="192" class="solid"></line>
        <line x1="1184" y1="192" x2="1208" y2="192" class="solid"></line>
        <line x1="1216" y1="176" x2="1208" y2="192" class="solid"></line>
    </g>
    <g>
        <line x1="496" y1="96" x2="520" y2="96" class="solid"></line>
        <line x1="496" y1="96" x2="488" y2="112" class="solid"></line>
        <line x1="488" y1="112" x2="512" y2="112" class="solid"></line>
        <line x1="520" y1="96" x2="512" y2="112" class="solid"></line>
        <line x1="520" y1="96" x2="552" y2="160" class="solid"></line>
        <line x1="524" y1="104" x2="524" y2="112" class="solid"></line>
        <line x1="488" y1="112" x2="528" y2="192" class="solid"></line>
        <line x1="512" y1="112" x2="552" y2="192" class="solid"></line>
        <line x1="532" y1="120" x2="532" y2="128" class="solid"></line>
        <line x1="540" y1="136" x2="540" y2="144" class="solid"></line>
        <line x1="548" y1="152" x2="548" y2="160" class="solid"></line>
        <line x1="560" y1="96" x2="584" y2="96" class="solid"></line>
        <line x1="560" y1="96" x2="544" y2="128" class="solid"></line>
        <line x1="584" y1="96" x2="580" y2="104" class="solid"></line>
        <line x1="580" y1="104" x2="580" y2="112" class="solid"></line>
        <line x1="584" y1="96" x2="592" y2="112" class="solid"></line>
        <line x1="592" y1="112" x2="552" y2="192" class="solid"></line>
        <line x1="528" y1="192" x2="552" y2="192" class="solid"></line>
    </g>
    <g>
        <line x1="576" y1="112" x2="572" y2="120" class="solid"></line>
        <line x1="572" y1="120" x2="572" y2="128" class="solid"></line>
    </g>
    <g>
        <line x1="568" y1="128" x2="564" y2="136" class="solid"></line>
        <line x1="564" y1="136" x2="564" y2="144" class="solid"></line>
    </g>
    <g>
        <line x1="560" y1="144" x2="556" y2="152" class="solid"></line>
        <line x1="556" y1="152" x2="556" y2="160" class="solid"></line>
    </g>
</svg>