<svg id="visual" viewBox="0 0 1024 300" width="1024" height="300" xmlns="http://www.w3.org/2000/svg" xmlns:xlink="http://www.w3.org/1999/xlink" version="1.1"><rect x="0" y="0" width="1024" height="300" fill="#FFFAFA"></rect><path d="M0 113L24.3 108.7C48.7 104.3 97.3 95.7 146.2 93C195 90.3 244 93.7 292.8 95.8C341.7 98 390.3 99 439 100.2C487.7 101.3 536.3 102.7 585 105.2C633.7 107.7 682.3 111.3 731.2 109.8C780 108.3 829 101.7 877.8 95.7C926.7 89.7 975.3 84.3 999.7 81.7L1024 79L1024 0L999.7 0C975.3 0 926.7 0 877.8 0C829 0 780 0 731.2 0C682.3 0 633.7 0 585 0C536.3 0 487.7 0 439 0C390.3 0 341.7 0 292.8 0C244 0 195 0 146.2 0C97.3 0 48.7 0 24.3 0L0 0Z" fill="#cc4b2c"></path><path d="M0 86L24.3 83.3C48.7 80.7 97.3 75.3 146.2 70.8C195 66.3 244 62.7 292.8 62C341.7 61.3 390.3 63.7 439 67.2C487.7 70.7 536.3 75.3 585 74.7C633.7 74 682.3 68 731.2 65.5C780 63 829 64 877.8 63.7C926.7 63.3 975.3 61.7 999.7 60.8L1024 60L1024 0L999.7 0C975.3 0 926.7 0 877.8 0C829 0 780 0 731.2 0C682.3 0 633.7 0 585 0C536.3 0 487.7 0 439 0C390.3 0 341.7 0 292.8 0C244 0 195 0 146.2 0C97.3 0 48.7 0 24.3 0L0 0Z" fill="#b14126"></path><path d="M0 54L24.3 54.3C48.7 54.7 97.3 55.3 146.2 55.3C195 55.3 244 54.7 292.8 53.8C341.7 53 390.3 52 439 53.8C487.7 55.7 536.3 60.3 585 59.3C633.7 58.3 682.3 51.7 731.2 54.2C780 56.7 829 68.3 877.8 72.8C926.7 77.3 975.3 74.7 999.7 73.3L1024 72L1024 0L999.7 0C975.3 0 926.7 0 877.8 0C829 0 780 0 731.2 0C682.3 0 633.7 0 585 0C536.3 0 487.7 0 439 0C390.3 0 341.7 0 292.8 0C244 0 195 0 146.2 0C97.3 0 48.7 0 24.3 0L0 0Z" fill="#973821"></path><path d="M0 32L24.3 34.5C48.7 37 97.3 42 146.2 44.3C195 46.7 244 46.3 292.8 44.7C341.7 43 390.3 40 439 37C487.7 34 536.3 31 585 30.7C633.7 30.3 682.3 32.7 731.2 34.5C780 36.3 829 37.7 877.8 36.8C926.7 36 975.3 33 999.7 31.5L1024 30L1024 0L999.7 0C975.3 0 926.7 0 877.8 0C829 0 780 0 731.2 0C682.3 0 633.7 0 585 0C536.3 0 487.7 0 439 0C390.3 0 341.7 0 292.8 0C244 0 195 0 146.2 0C97.3 0 48.7 0 24.3 0L0 0Z" fill="#7e2f1b"></path><path d="M0 15L24.3 16C48.7 17 97.3 19 146.2 22.3C195 25.7 244 30.3 292.8 32.3C341.7 34.3 390.3 33.7 439 30.8C487.7 28 536.3 23 585 19.8C633.7 16.7 682.3 15.3 731.2 16.7C780 18 829 22 877.8 23C926.7 24 975.3 22 999.7 21L1024 20L1024 0L999.7 0C975.3 0 926.7 0 877.8 0C829 0 780 0 731.2 0C682.3 0 633.7 0 585 0C536.3 0 487.7 0 439 0C390.3 0 341.7 0 292.8 0C244 0 195 0 146.2 0C97.3 0 48.7 0 24.3 0L0 0Z" fill="#662616"></path></svg>