<svg id="visual" viewBox="0 0 1024 300" width="1024" height="300" xmlns="http://www.w3.org/2000/svg" xmlns:xlink="http://www.w3.org/1999/xlink" version="1.1"><rect x="0" y="0" width="1024" height="300" fill="#FFFAFA"></rect><path d="M0 189L24.3 187.7C48.7 186.3 97.3 183.7 146.2 188.2C195 192.7 244 204.3 292.8 205.7C341.7 207 390.3 198 439 192.5C487.7 187 536.3 185 585 186.5C633.7 188 682.3 193 731.2 199.2C780 205.3 829 212.7 877.8 213.8C926.7 215 975.3 210 999.7 207.5L1024 205L1024 301L999.7 301C975.3 301 926.7 301 877.8 301C829 301 780 301 731.2 301C682.3 301 633.7 301 585 301C536.3 301 487.7 301 439 301C390.3 301 341.7 301 292.8 301C244 301 195 301 146.2 301C97.3 301 48.7 301 24.3 301L0 301Z" fill="#cc4b2c"></path><path d="M0 206L24.3 206.2C48.7 206.3 97.3 206.7 146.2 209.2C195 211.7 244 216.3 292.8 218.2C341.7 220 390.3 219 439 217.7C487.7 216.3 536.3 214.7 585 215C633.7 215.3 682.3 217.7 731.2 217.5C780 217.3 829 214.7 877.8 213.3C926.7 212 975.3 212 999.7 212L1024 212L1024 301L999.7 301C975.3 301 926.7 301 877.8 301C829 301 780 301 731.2 301C682.3 301 633.7 301 585 301C536.3 301 487.7 301 439 301C390.3 301 341.7 301 292.8 301C244 301 195 301 146.2 301C97.3 301 48.7 301 24.3 301L0 301Z" fill="#b14126"></path><path d="M0 254L24.3 249C48.7 244 97.3 234 146.2 228.2C195 222.3 244 220.7 292.8 224C341.7 227.3 390.3 235.7 439 238.5C487.7 241.3 536.3 238.7 585 238.3C633.7 238 682.3 240 731.2 238.8C780 237.7 829 233.3 877.8 232.5C926.7 231.7 975.3 234.3 999.7 235.7L1024 237L1024 301L999.7 301C975.3 301 926.7 301 877.8 301C829 301 780 301 731.2 301C682.3 301 633.7 301 585 301C536.3 301 487.7 301 439 301C390.3 301 341.7 301 292.8 301C244 301 195 301 146.2 301C97.3 301 48.7 301 24.3 301L0 301Z" fill="#973821"></path><path d="M0 265L24.3 265.2C48.7 265.3 97.3 265.7 146.2 264C195 262.3 244 258.7 292.8 255.3C341.7 252 390.3 249 439 250.2C487.7 251.3 536.3 256.7 585 258.8C633.7 261 682.3 260 731.2 258.5C780 257 829 255 877.8 254.3C926.7 253.7 975.3 254.3 999.7 254.7L1024 255L1024 301L999.7 301C975.3 301 926.7 301 877.8 301C829 301 780 301 731.2 301C682.3 301 633.7 301 585 301C536.3 301 487.7 301 439 301C390.3 301 341.7 301 292.8 301C244 301 195 301 146.2 301C97.3 301 48.7 301 24.3 301L0 301Z" fill="#7e2f1b"></path><path d="M0 271L24.3 271C48.7 271 97.3 271 146.2 270.5C195 270 244 269 292.8 268.8C341.7 268.7 390.3 269.3 439 270.3C487.7 271.3 536.3 272.7 585 275.3C633.7 278 682.3 282 731.2 281.2C780 280.3 829 274.7 877.8 272.7C926.7 270.7 975.3 272.3 999.7 273.2L1024 274L1024 301L999.7 301C975.3 301 926.7 301 877.8 301C829 301 780 301 731.2 301C682.3 301 633.7 301 585 301C536.3 301 487.7 301 439 301C390.3 301 341.7 301 292.8 301C244 301 195 301 146.2 301C97.3 301 48.7 301 24.3 301L0 301Z" fill="#662616"></path></svg>